<svg xmlns="http://www.w3.org/2000/svg" viewBox="0 0 24 30" x="0px" y="0px"><g data-name="Movie Reel"><path d="M13,2A10,10,0,0,0,7,20H2a1,1,0,0,0,0,2H13A10,10,0,0,0,13,2ZM6,12a2,2,0,1,1,2,2A2,2,0,0,1,6,12Zm7,7a2,2,0,1,1,2-2A2,2,0,0,1,13,19Zm-1.5-7A1.5,1.5,0,1,1,13,13.5,1.5,1.5,0,0,1,11.5,12ZM13,9a2,2,0,1,1,2-2A2,2,0,0,1,13,9Zm5,5a2,2,0,1,1,2-2A2,2,0,0,1,18,14Z"/></g><text x="0" y="39" fill="#000000" font-size="5px" font-weight="bold" font-family="'Helvetica Neue', Helvetica, Arial-Unicode, Arial, Sans-serif">Created by Relon Studio</text><text x="0" y="44" fill="#000000" font-size="5px" font-weight="bold" font-family="'Helvetica Neue', Helvetica, Arial-Unicode, Arial, Sans-serif">from the Noun Project</text></svg>